├é┬▒├é┬▒├é┬▒├é┬▒├é┬▒├é┬▒├é┬▒├é┬▒├é┬▒├é┬▒├é┬▒├é┬▒├é┬▒├é┬▒├é┬▒├é┬▒├é┬▒├é┬▒├é┬▒├é┬▒├é┬▒├é┬▒├é┬▒├é┬▒├é┬▒├é┬▒├é┬▒├é┬▒├é┬▒>>www.tornster.com<<├é┬▒├é┬▒├é┬▒├é┬▒├é┬▒├é┬▒├é┬▒├é┬▒├é┬▒├é┬▒├é┬▒├é┬▒├é┬▒├é┬▒├é┬▒├é┬▒├é┬▒├é┬▒├é┬▒├é┬▒├é┬▒├é┬▒├é┬▒├é┬▒├é┬▒├é┬▒├é┬▒├é┬▒├é┬▒├é┬▒
├é┬▒                                                                              ├é┬▒
├é┬▒ INFO:                                                                        ├é┬▒
├é┬▒                                                                              ├é┬▒
├é┬▒ General                                                                      ├é┬▒
├é┬▒ Complete name                    : Battlefield Earth                         ├é┬▒
├é┬▒ Genre                            : Action / Sci-Fi                           ├é┬▒
├é┬▒ Format                           : AVI                                       ├é┬▒
├é┬▒ Format/Info                      : Audio Video Interleave                    ├é┬▒
├é┬▒ File size                        : 1.37 GiB                                  ├é┬▒
├é┬▒ Duration                         : 1h 52mn                                   ├é┬▒
├é┬▒ Overall bit rate                 : 1 738 Kbps                                ├é┬▒
├é┬▒ Writing application              : VirtualDubMod 1.5.4.1 (build 2178/release)├é┬▒
├é┬▒ Writing library                  : VirtualDubMod build 2178/release          ├é┬▒
├é┬▒                                                                              ├é┬▒
├é┬▒ Video                                                                        ├é┬▒
├é┬▒ Format                           : MPEG-4 Visual                             ├é┬▒
├é┬▒ Format settings, BVOP            : Yes                                       ├é┬▒
├é┬▒ Format settings, QPel            : No                                        ├é┬▒
├é┬▒ Format settings, GMC             : No warppoints                             ├é┬▒
├é┬▒ Format settings, Matrix          : Default                                   ├é┬▒
├é┬▒ Codec ID                         : DX50                                      ├é┬▒
├é┬▒ Codec ID/Hint                    : DivX 5                                    ├é┬▒
├é┬▒ Duration                         : 1h 52mn                                   ├é┬▒
├é┬▒ Bit rate                         : 1 506 Kbps                                ├é┬▒
├é┬▒ Width                            : 720 pixels                                ├é┬▒
├é┬▒ Height                           : 304 pixels                                ├é┬▒
├é┬▒ Display aspect ratio             : 2.35                                      ├é┬▒
├é┬▒ Frame rate                       : 25.000 fps                                ├é┬▒
├é┬▒ Resolution                       : 24 bits                                   ├é┬▒
├é┬▒ Colorimetry                      : 4:2:0                                     ├é┬▒
├é┬▒ Scan type                        : Progressive                               ├é┬▒
├é┬▒ Bits/(Pixel*Frame)               : 0.275                                     ├é┬▒
├é┬▒ Stream size                      : 1.19 GiB (87%)                            ├é┬▒
├é┬▒ Writing library                  : XviD 2816                                 ├é┬▒
├é┬▒                                                                              ├é┬▒
├é┬▒ Audio                                                                        ├é┬▒
├é┬▒ Format                           : AC-3                                      ├é┬▒
├é┬▒ Format/Info                      : Audio Coding 3                            ├é┬▒
├é┬▒ Codec ID                         : 2000                                      ├é┬▒
├é┬▒ Duration                         : 1h 55mn                                   ├é┬▒
├é┬▒ Bit rate mode                    : Constant                                  ├é┬▒
├é┬▒ Bit rate                         : 224 Kbps                                  ├é┬▒
├é┬▒ Channel(s)                       : 2 channels                                ├é┬▒
├é┬▒ Channel positions                : L R                                       ├é┬▒
├é┬▒ Sampling rate                    : 48.0 KHz                                  ├é┬▒
├é┬▒ Stream size                      : 181 MiB (13%)                             ├é┬▒
├é┬▒ Alignment                        : Split accross interleaves                 ├é┬▒
├é┬▒ Interleave, duration             : 80 ms (2.00 video frames)                 ├é┬▒
├é┬▒ Interleave, preload duration     : 500 ms                                    ├é┬▒
├é┬▒ Language                         : English                                   ├é┬▒
├é┬▒ Subtitles                        : None                                      ├é┬▒
├é┬▒                                                                              ├é┬▒
├é┬▒ IMDb Rating                      : 2.3/10                                    ├é┬▒
├é┬▒ IMDb URL                         : http://www.imdb.com/title/tt0185183/      ├é┬▒
├é┬▒                                                                              ├é┬▒
├é┬▒├é┬░├é┬░├é┬░├é┬░├é┬░├é┬░├é┬░├é┬░├é┬░├é┬░├é┬░├é┬░├é┬░├é┬░├é┬░├é┬░├é┬░├é┬░├é┬░├é┬░├é┬░├é┬░├é┬░├é┬░├é┬░├é┬░├é┬░├é┬░├é┬░├é┬░├é┬░├é┬░├é┬░├é┬░├é┬░├é┬░├é┬░├é┬░├é┬░├é┬░├é┬░├é┬░├é┬░├é┬░├é┬░├é┬░├é┬░├é┬░├é┬░├é┬░├é┬░├é┬░├é┬░├é┬░├é┬░├é┬░├é┬░├é┬░├é┬░├é┬░├é┬░├é┬░├é┬░├é┬░├é┬░├é┬░├é┬░├é┬░├é┬░├é┬░├é┬░├é┬░├é┬░├é┬░├é┬░├é┬░├é┬░├é┬░├é┬▒
├é┬▒                                                                              ├é┬▒
├é┬▒ In the year 3000, there are no countries, no cities...Earth is a wasteland   ├é┬▒
├é┬▒ and man is no match for the Psychlos, a manipulative race of aliens on a     ├é┬▒
├é┬▒ quest for global domination. Led by the seductive and powerful Terl, the     ├é┬▒
├é┬▒ Psychlos have taken all natural resources for themselves and left mankind    ├é┬▒
├é┬▒ behind to rot.                                                               ├é┬▒
├é┬▒                                                                              ├é┬▒
├é┬▒                                                                              ├é┬▒
├é┬▒                                                                              ├é┬▒
├é┬▒                                                                              ├é┬▒
├é┬▒                                                                              ├é┬▒
├é┬▒├é┬░├é┬░├é┬░├é┬░├é┬░├é┬░├é┬░├é┬░├é┬░├é┬░├é┬░├é┬░├é┬░├é┬░├é┬░├é┬░├é┬░├é┬░├é┬░├é┬░├é┬░├é┬░├é┬░├é┬░├é┬░├é┬░├é┬░├é┬░├é┬░├é┬░├é┬░├é┬░├é┬░├é┬░├é┬░├é┬░├é┬░├é┬░├é┬░├é┬░├é┬░├é┬░├é┬░├é┬░├é┬░├é┬░├é┬░├é┬░├é┬░├é┬░├é┬░├é┬░├é┬░├é┬░├é┬░├é┬░├é┬░├é┬░├é┬░├é┬░├é┬░├é┬░├é┬░├é┬░├é┬░├é┬░├é┬░├é┬░├é┬░├é┬░├é┬░├é┬░├é┬░├é┬░├é┬░├é┬░├é┬░├é┬░├é┬▒
├é┬▒                                                                              ├é┬▒
├é┬▒ CAST:                                                                        ├é┬▒
├é┬▒                                                                              ├é┬▒
├é┬▒ John Travolta..............Terl                                              ├é┬▒
├é┬▒ Barry Pepper...............Jonnie Goodboy Tyler                              ├é┬▒
├é┬▒ Forest Whitaker............Ker                                               ├é┬▒
├é┬▒ Kim Coates.................Carlo                                             ├é┬▒
├é┬▒ Sabine Karsenti............Chrissy                                           ├é┬▒
├é┬▒ Michael Byrne..............Parson Staffer                                    ├é┬▒
├é┬▒ Christian Tessier..........Mickey                                            ├é┬▒  
├é┬▒                                                                              ├é┬▒
├é┬▒├é┬░├é┬░├é┬░├é┬░├é┬░├é┬░├é┬░├é┬░├é┬░├é┬░├é┬░├é┬░├é┬░├é┬░├é┬░├é┬░├é┬░├é┬░├é┬░├é┬░├é┬░├é┬░├é┬░├é┬░├é┬░├é┬░├é┬░├é┬░├é┬░├é┬░├é┬░├é┬░├é┬░├é┬░├é┬░├é┬░├é┬░├é┬░├é┬░├é┬░├é┬░├é┬░├é┬░├é┬░├é┬░├é┬░├é┬░├é┬░├é┬░├é┬░├é┬░├é┬░├é┬░├é┬░├é┬░├é┬░├é┬░├é┬░├é┬░├é┬░├é┬░├é┬░├é┬░├é┬░├é┬░├é┬░├é┬░├é┬░├é┬░├é┬░├é┬░├é┬░├é┬░├é┬░├é┬░├é┬░├é┬░├é┬░├é┬▒
├é┬▒                                                                              ├é┬▒
├é┬▒                            Please remember to seed                           ├é┬▒
├é┬▒                                                                              ├é┬▒
├é┬▒                              Standalone Enabled                              ├é┬▒
├é┬▒                                                                              ├é┬▒
├é┬▒                               www.tornster.com                               ├é┬▒
├é┬▒                                                                              ├é┬▒
├é┬▒├é┬▒├é┬▒├é┬▒├é┬▒├é┬▒├é┬▒├é┬▒├é┬▒├é┬▒├é┬▒├é┬▒├é┬▒├é┬▒├é┬▒├é┬▒├é┬▒├é┬▒├é┬▒├é┬▒├é┬▒├é┬▒├é┬▒├é┬▒├é┬▒├é┬▒├é┬▒├é┬▒├é┬▒├é┬▒├é┬▒├é┬▒├é┬▒├é┬▒├é┬▒├é┬▒├é┬▒├é┬▒├é┬▒├é┬▒├é┬▒├é┬▒├é┬▒├é┬▒├é┬▒├é┬▒├é┬▒├é┬▒├é┬▒├é┬▒├é┬▒├é┬▒├é┬▒├é┬▒├é┬▒├é┬▒├é┬▒├é┬▒├é┬▒├é┬▒├é┬▒├é┬▒├é┬▒├é┬▒├é┬▒├é┬▒├é┬▒├é┬▒├é┬▒├é┬▒├é┬▒├é┬▒├é┬▒├é┬▒├é┬▒├é┬▒├é┬▒├é┬▒├é┬▒├é┬▒